solid OpenSCAD_Model
  facet normal 0 0 1
    outer loop
      vertex 15.010000000000009 3.8999999999999986 1.5
      vertex 16.01000000000001 4.899999999999999 1.5
      vertex 15.010000000000009 43.62 1.5
    endloop
  endfacet
  facet normal 1 0 0
    outer loop
      vertex 15.010000000000009 3.8999999999999986 1.5
      vertex 15.010000000000009 43.62 2.5
      vertex 15.010000000000009 3.8999999999999986 2.5
    endloop
  endfacet
  facet normal 0 0 1
    outer loop
      vertex 15.010000000000009 3.8999999999999986 1.5
      vertex 65.97000000000001 4.899999999999999 1.5
      vertex 16.01000000000001 4.899999999999999 1.5
    endloop
  endfacet
  facet normal 0 1 0
    outer loop
      vertex 15.010000000000009 3.8999999999999986 1.5
      vertex 15.010000000000009 3.8999999999999986 2.5
      vertex 66.97000000000001 3.8999999999999986 1.5
    endloop
  endfacet
  facet normal 0 0 1
    outer loop
      vertex 16.01000000000001 4.899999999999999 1.5
      vertex 16.01000000000001 42.62 1.5
      vertex 15.010000000000009 43.62 1.5
    endloop
  endfacet
  facet normal 1 0 0
    outer loop
      vertex 15.010000000000009 3.8999999999999986 1.5
      vertex 15.010000000000009 43.62 1.5
      vertex 15.010000000000009 43.62 2.5
    endloop
  endfacet
  facet normal 0 0 1
    outer loop
      vertex 15.010000000000009 43.62 1.5
      vertex 16.01000000000001 42.62 1.5
      vertex 66.97000000000001 43.62 1.5
    endloop
  endfacet
  facet normal 0 -1 0
    outer loop
      vertex 15.010000000000009 43.62 1.5
      vertex 66.97000000000001 43.62 2.5
      vertex 15.010000000000009 43.62 2.5
    endloop
  endfacet
  facet normal 0 0 1
    outer loop
      vertex 15.010000000000009 3.8999999999999986 1.5
      vertex 66.97000000000001 3.8999999999999986 1.5
      vertex 65.97000000000001 4.899999999999999 1.5
    endloop
  endfacet
  facet normal 0 1 0
    outer loop
      vertex 15.010000000000009 3.8999999999999986 2.5
      vertex 66.97000000000001 3.8999999999999986 2.5
      vertex 66.97000000000001 3.8999999999999986 1.5
    endloop
  endfacet
  facet normal 0 0 1
    outer loop
      vertex 65.97000000000001 4.899999999999999 1.5
      vertex 66.97000000000001 3.8999999999999986 1.5
      vertex 65.97000000000001 42.62 1.5
    endloop
  endfacet
  facet normal -1 0 0
    outer loop
      vertex 66.97000000000001 3.8999999999999986 1.5
      vertex 66.97000000000001 3.8999999999999986 2.5
      vertex 66.97000000000001 43.62 1.5
    endloop
  endfacet
  facet normal 0 0 1
    outer loop
      vertex 16.01000000000001 42.62 1.5
      vertex 65.97000000000001 42.62 1.5
      vertex 66.97000000000001 43.62 1.5
    endloop
  endfacet
  facet normal 0 -1 0
    outer loop
      vertex 15.010000000000009 43.62 1.5
      vertex 66.97000000000001 43.62 1.5
      vertex 66.97000000000001 43.62 2.5
    endloop
  endfacet
  facet normal 0 0 1
    outer loop
      vertex 66.97000000000001 3.8999999999999986 1.5
      vertex 66.97000000000001 43.62 1.5
      vertex 65.97000000000001 42.62 1.5
    endloop
  endfacet
  facet normal -1 0 0
    outer loop
      vertex 66.97000000000001 3.8999999999999986 2.5
      vertex 66.97000000000001 43.62 2.5
      vertex 66.97000000000001 43.62 1.5
    endloop
  endfacet
  facet normal 0 0 -1
    outer loop
      vertex 0 0 0
      vertex 16.01000000000001 4.899999999999999 0
      vertex 20.495000000000005 0 0
    endloop
  endfacet
  facet normal 0 0 -1
    outer loop
      vertex 16.01000000000001 4.899999999999999 0
      vertex 20.495000000000005 1.2000000000000002 0
      vertex 20.495000000000005 0 0
    endloop
  endfacet
  facet normal 0 0 -1
    outer loop
      vertex 0 0 0
      vertex 0 47.519999999999996 0
      vertex 16.01000000000001 4.899999999999999 0
    endloop
  endfacet
  facet normal -1 0 0
    outer loop
      vertex 0 0 0
      vertex 0 0 2.5
      vertex 0 47.519999999999996 2.5
    endloop
  endfacet
  facet normal 0 0 1
    outer loop
      vertex 0 0 2.5
      vertex 15.010000000000009 3.8999999999999986 2.5
      vertex 15.010000000000009 43.62 2.5
    endloop
  endfacet
  facet normal 0 0 -1
    outer loop
      vertex 16.01000000000001 4.899999999999999 0
      vertex 28.495000000000005 1.2000000000000002 0
      vertex 20.495000000000005 1.2000000000000002 0
    endloop
  endfacet
  facet normal 0 0 -1
    outer loop
      vertex 16.01000000000001 4.899999999999999 0
      vertex 57.38600000000001 1.2000000000000002 0
      vertex 28.495000000000005 1.2000000000000002 0
    endloop
  endfacet
  facet normal 0 0 -1
    outer loop
      vertex 28.495000000000005 0 0
      vertex 28.495000000000005 1.2000000000000002 0
      vertex 57.38600000000001 1.2000000000000002 0
    endloop
  endfacet
  facet normal 0 -1 0
    outer loop
      vertex 0 0 0
      vertex 20.495000000000005 0 0
      vertex 81.98000000000002 0 2.5
    endloop
  endfacet
  facet normal 0 -1 0
    outer loop
      vertex 0 0 0
      vertex 81.98000000000002 0 2.5
      vertex 0 0 2.5
    endloop
  endfacet
  facet normal 0 0 1
    outer loop
      vertex 0 0 2.5
      vertex 66.97000000000001 3.8999999999999986 2.5
      vertex 15.010000000000009 3.8999999999999986 2.5
    endloop
  endfacet
  facet normal -1 0 0
    outer loop
      vertex 0 0 0
      vertex 0 47.519999999999996 2.5
      vertex 0 47.519999999999996 0
    endloop
  endfacet
  facet normal 0 0 -1
    outer loop
      vertex 16.01000000000001 4.899999999999999 0
      vertex 0 47.519999999999996 0
      vertex 16.01000000000001 42.62 0
    endloop
  endfacet
  facet normal 0 0 1
    outer loop
      vertex 0 0 2.5
      vertex 15.010000000000009 43.62 2.5
      vertex 0 47.519999999999996 2.5
    endloop
  endfacet
  facet normal 0 0 -1
    outer loop
      vertex 0 47.519999999999996 0
      vertex 20.495000000000005 44.919999999999995 0
      vertex 16.01000000000001 42.62 0
    endloop
  endfacet
  facet normal 0 0 -1
    outer loop
      vertex 0 47.519999999999996 0
      vertex 20.495000000000005 46.519999999999996 0
      vertex 20.495000000000005 44.919999999999995 0
    endloop
  endfacet
  facet normal 0 1 0
    outer loop
      vertex 0 47.519999999999996 0
      vertex 0 47.519999999999996 2.5
      vertex 81.98000000000002 47.519999999999996 0
    endloop
  endfacet
  facet normal 0 0 -1
    outer loop
      vertex 16.01000000000001 42.62 0
      vertex 20.495000000000005 44.919999999999995 0
      vertex 65.97000000000001 42.62 0
    endloop
  endfacet
  facet normal 0 0 -1
    outer loop
      vertex 0 47.519999999999996 0
      vertex 81.98000000000002 47.519999999999996 0
      vertex 20.495000000000005 46.519999999999996 0
    endloop
  endfacet
  facet normal 0 0 -1
    outer loop
      vertex 65.97000000000001 42.62 0
      vertex 20.495000000000005 44.919999999999995 0
      vertex 28.495000000000005 44.919999999999995 0
    endloop
  endfacet
  facet normal 0 0 -1
    outer loop
      vertex 65.97000000000001 42.62 0
      vertex 28.495000000000005 44.919999999999995 0
      vertex 28.495000000000005 46.519999999999996 0
    endloop
  endfacet
  facet normal 0 0 1
    outer loop
      vertex 0 47.519999999999996 2.5
      vertex 15.010000000000009 43.62 2.5
      vertex 81.98000000000002 47.519999999999996 2.5
    endloop
  endfacet
  facet normal 0 0 -1
    outer loop
      vertex 28.495000000000005 0 0
      vertex 57.38600000000001 1.2000000000000002 0
      vertex 57.38600000000001 0 0
    endloop
  endfacet
  facet normal 0 0 -1
    outer loop
      vertex 16.01000000000001 4.899999999999999 0
      vertex 65.38600000000001 1.2000000000000002 0
      vertex 57.38600000000001 1.2000000000000002 0
    endloop
  endfacet
  facet normal 0 -1 0
    outer loop
      vertex 81.98000000000002 0 2.5
      vertex 20.495000000000005 0 0
      vertex 28.495000000000005 0 0
    endloop
  endfacet
  facet normal 0 0 -1
    outer loop
      vertex 16.01000000000001 4.899999999999999 0
      vertex 81.98000000000002 0 0
      vertex 65.38600000000001 1.2000000000000002 0
    endloop
  endfacet
  facet normal 0 0 -1
    outer loop
      vertex 16.01000000000001 4.899999999999999 0
      vertex 65.97000000000001 4.899999999999999 0
      vertex 81.98000000000002 0 0
    endloop
  endfacet
  facet normal 0 -1 0
    outer loop
      vertex 81.98000000000002 0 2.5
      vertex 28.495000000000005 0 0
      vertex 57.38600000000001 0 0
    endloop
  endfacet
  facet normal 0 0 1
    outer loop
      vertex 0 0 2.5
      vertex 81.98000000000002 0 2.5
      vertex 66.97000000000001 3.8999999999999986 2.5
    endloop
  endfacet
  facet normal 0 0 -1
    outer loop
      vertex 81.98000000000002 0 0
      vertex 65.38600000000001 0 0
      vertex 65.38600000000001 1.2000000000000002 0
    endloop
  endfacet
  facet normal 0 -1 0
    outer loop
      vertex 81.98000000000002 0 2.5
      vertex 57.38600000000001 0 0
      vertex 65.38600000000001 0 0
    endloop
  endfacet
  facet normal 0 -1 0
    outer loop
      vertex 81.98000000000002 0 0
      vertex 81.98000000000002 0 2.5
      vertex 65.38600000000001 0 0
    endloop
  endfacet
  facet normal 0 0 -1
    outer loop
      vertex 65.97000000000001 4.899999999999999 0
      vertex 65.97000000000001 42.62 0
      vertex 81.98000000000002 0 0
    endloop
  endfacet
  facet normal 1 0 0
    outer loop
      vertex 81.98000000000002 0 0
      vertex 81.98000000000002 47.519999999999996 0
      vertex 81.98000000000002 0 2.5
    endloop
  endfacet
  facet normal 0 0 1
    outer loop
      vertex 66.97000000000001 3.8999999999999986 2.5
      vertex 81.98000000000002 0 2.5
      vertex 81.98000000000002 47.519999999999996 2.5
    endloop
  endfacet
  facet normal 0 0 -1
    outer loop
      vertex 81.98000000000002 47.519999999999996 0
      vertex 28.495000000000005 46.519999999999996 0
      vertex 20.495000000000005 46.519999999999996 0
    endloop
  endfacet
  facet normal 0 0 -1
    outer loop
      vertex 28.495000000000005 46.519999999999996 0
      vertex 57.38600000000001 46.519999999999996 0
      vertex 57.38600000000001 44.919999999999995 0
    endloop
  endfacet
  facet normal 0 0 -1
    outer loop
      vertex 65.97000000000001 42.62 0
      vertex 28.495000000000005 46.519999999999996 0
      vertex 57.38600000000001 44.919999999999995 0
    endloop
  endfacet
  facet normal 0 0 -1
    outer loop
      vertex 81.98000000000002 47.519999999999996 0
      vertex 57.38600000000001 46.519999999999996 0
      vertex 28.495000000000005 46.519999999999996 0
    endloop
  endfacet
  facet normal 0 1 0
    outer loop
      vertex 0 47.519999999999996 2.5
      vertex 81.98000000000002 47.519999999999996 2.5
      vertex 81.98000000000002 47.519999999999996 0
    endloop
  endfacet
  facet normal 0 0 1
    outer loop
      vertex 15.010000000000009 43.62 2.5
      vertex 66.97000000000001 43.62 2.5
      vertex 81.98000000000002 47.519999999999996 2.5
    endloop
  endfacet
  facet normal 0 0 -1
    outer loop
      vertex 81.98000000000002 0 0
      vertex 65.97000000000001 42.62 0
      vertex 81.98000000000002 47.519999999999996 0
    endloop
  endfacet
  facet normal 1 0 0
    outer loop
      vertex 81.98000000000002 0 2.5
      vertex 81.98000000000002 47.519999999999996 0
      vertex 81.98000000000002 47.519999999999996 2.5
    endloop
  endfacet
  facet normal 0 0 1
    outer loop
      vertex 66.97000000000001 3.8999999999999986 2.5
      vertex 81.98000000000002 47.519999999999996 2.5
      vertex 66.97000000000001 43.62 2.5
    endloop
  endfacet
  facet normal 0 0 -1
    outer loop
      vertex 65.97000000000001 42.62 0
      vertex 57.38600000000001 44.919999999999995 0
      vertex 65.38600000000001 44.919999999999995 0
    endloop
  endfacet
  facet normal 0 0 -1
    outer loop
      vertex 81.98000000000002 47.519999999999996 0
      vertex 65.38600000000001 46.519999999999996 0
      vertex 57.38600000000001 46.519999999999996 0
    endloop
  endfacet
  facet normal 0 0 -1
    outer loop
      vertex 65.97000000000001 42.62 0
      vertex 65.38600000000001 44.919999999999995 0
      vertex 81.98000000000002 47.519999999999996 0
    endloop
  endfacet
  facet normal 0 0 -1
    outer loop
      vertex 81.98000000000002 47.519999999999996 0
      vertex 65.38600000000001 44.919999999999995 0
      vertex 65.38600000000001 46.519999999999996 0
    endloop
  endfacet
  facet normal 1 0 0
    outer loop
      vertex 16.01000000000001 4.899999999999999 0
      vertex 16.01000000000001 42.62 1.5
      vertex 16.01000000000001 4.899999999999999 1.5
    endloop
  endfacet
  facet normal 0 1 0
    outer loop
      vertex 16.01000000000001 4.899999999999999 0
      vertex 16.01000000000001 4.899999999999999 1.5
      vertex 65.97000000000001 4.899999999999999 0
    endloop
  endfacet
  facet normal 1 0 0
    outer loop
      vertex 16.01000000000001 4.899999999999999 0
      vertex 16.01000000000001 42.62 0
      vertex 16.01000000000001 42.62 1.5
    endloop
  endfacet
  facet normal 0 -1 0
    outer loop
      vertex 16.01000000000001 42.62 0
      vertex 65.97000000000001 42.62 1.5
      vertex 16.01000000000001 42.62 1.5
    endloop
  endfacet
  facet normal 0 1 0
    outer loop
      vertex 16.01000000000001 4.899999999999999 1.5
      vertex 65.97000000000001 4.899999999999999 1.5
      vertex 65.97000000000001 4.899999999999999 0
    endloop
  endfacet
  facet normal -1 0 0
    outer loop
      vertex 65.97000000000001 4.899999999999999 0
      vertex 65.97000000000001 4.899999999999999 1.5
      vertex 65.97000000000001 42.62 0
    endloop
  endfacet
  facet normal 0 -1 0
    outer loop
      vertex 16.01000000000001 42.62 0
      vertex 65.97000000000001 42.62 0
      vertex 65.97000000000001 42.62 1.5
    endloop
  endfacet
  facet normal -1 0 0
    outer loop
      vertex 65.97000000000001 4.899999999999999 1.5
      vertex 65.97000000000001 42.62 1.5
      vertex 65.97000000000001 42.62 0
    endloop
  endfacet
  facet normal 0 0 -1
    outer loop
      vertex 20.495000000000005 -0.3999999999999999 -3
      vertex 20.495000000000005 1.2000000000000002 -3
      vertex 28.495000000000005 1.2000000000000002 -3
    endloop
  endfacet
  facet normal 0 0 -1
    outer loop
      vertex 20.495000000000005 -0.3999999999999999 -3
      vertex 28.495000000000005 1.2000000000000002 -3
      vertex 28.495000000000005 -0.3999999999999999 -3
    endloop
  endfacet
  facet normal -1 0 0
    outer loop
      vertex 20.495000000000005 -0.3999999999999999 -3
      vertex 20.495000000000005 1.2000000000000002 0
      vertex 20.495000000000005 1.2000000000000002 -3
    endloop
  endfacet
  facet normal 0 1 0
    outer loop
      vertex 20.495000000000005 1.2000000000000002 -3
      vertex 20.495000000000005 1.2000000000000002 0
      vertex 28.495000000000005 1.2000000000000002 -3
    endloop
  endfacet
  facet normal 0 -1 0
    outer loop
      vertex 20.495000000000005 -0.3999999999999999 -3
      vertex 28.495000000000005 -0.3999999999999999 -3
      vertex 28.495000000000005 -0.3999999999999999 0
    endloop
  endfacet
  facet normal 1 0 0
    outer loop
      vertex 28.495000000000005 -0.3999999999999999 -3
      vertex 28.495000000000005 1.2000000000000002 -3
      vertex 28.495000000000005 -0.3999999999999999 0
    endloop
  endfacet
  facet normal -1 0 0
    outer loop
      vertex 20.495000000000005 -0.3999999999999999 -3
      vertex 20.495000000000005 -0.3999999999999999 0
      vertex 20.495000000000005 0 0
    endloop
  endfacet
  facet normal -1 0 0
    outer loop
      vertex 20.495000000000005 -0.3999999999999999 -3
      vertex 20.495000000000005 0 0
      vertex 20.495000000000005 1.2000000000000002 0
    endloop
  endfacet
  facet normal 0 -1 0
    outer loop
      vertex 20.495000000000005 -0.3999999999999999 -3
      vertex 28.495000000000005 -0.3999999999999999 0
      vertex 20.495000000000005 -0.3999999999999999 0
    endloop
  endfacet
  facet normal 0 1 0
    outer loop
      vertex 28.495000000000005 1.2000000000000002 -3
      vertex 20.495000000000005 1.2000000000000002 0
      vertex 28.495000000000005 1.2000000000000002 0
    endloop
  endfacet
  facet normal 1 0 0
    outer loop
      vertex 28.495000000000005 1.2000000000000002 -3
      vertex 28.495000000000005 0 0
      vertex 28.495000000000005 -0.3999999999999999 0
    endloop
  endfacet
  facet normal 1 0 0
    outer loop
      vertex 28.495000000000005 1.2000000000000002 -3
      vertex 28.495000000000005 1.2000000000000002 0
      vertex 28.495000000000005 0 0
    endloop
  endfacet
  facet normal 0 0 1
    outer loop
      vertex 20.495000000000005 -0.3999999999999999 0
      vertex 28.495000000000005 0 0
      vertex 20.495000000000005 0 0
    endloop
  endfacet
  facet normal 0 0 1
    outer loop
      vertex 20.495000000000005 -0.3999999999999999 0
      vertex 28.495000000000005 -0.3999999999999999 0
      vertex 28.495000000000005 0 0
    endloop
  endfacet
  facet normal 0 0 -1
    outer loop
      vertex 20.495000000000005 44.919999999999995 -3
      vertex 20.495000000000005 46.519999999999996 -3
      vertex 28.495000000000005 46.519999999999996 -3
    endloop
  endfacet
  facet normal 0 0 -1
    outer loop
      vertex 20.495000000000005 44.919999999999995 -3
      vertex 28.495000000000005 46.519999999999996 -3
      vertex 28.495000000000005 44.919999999999995 -3
    endloop
  endfacet
  facet normal -1 0 0
    outer loop
      vertex 20.495000000000005 44.919999999999995 -3
      vertex 20.495000000000005 46.519999999999996 0
      vertex 20.495000000000005 46.519999999999996 -3
    endloop
  endfacet
  facet normal 0 1 0
    outer loop
      vertex 20.495000000000005 46.519999999999996 -3
      vertex 20.495000000000005 46.519999999999996 0
      vertex 28.495000000000005 46.519999999999996 -3
    endloop
  endfacet
  facet normal 0 -1 0
    outer loop
      vertex 20.495000000000005 44.919999999999995 -3
      vertex 28.495000000000005 44.919999999999995 -3
      vertex 28.495000000000005 44.919999999999995 0
    endloop
  endfacet
  facet normal 1 0 0
    outer loop
      vertex 28.495000000000005 44.919999999999995 -3
      vertex 28.495000000000005 46.519999999999996 -3
      vertex 28.495000000000005 44.919999999999995 0
    endloop
  endfacet
  facet normal -1 0 0
    outer loop
      vertex 20.495000000000005 44.919999999999995 -3
      vertex 20.495000000000005 44.919999999999995 0
      vertex 20.495000000000005 46.519999999999996 0
    endloop
  endfacet
  facet normal 0 -1 0
    outer loop
      vertex 20.495000000000005 44.919999999999995 -3
      vertex 28.495000000000005 44.919999999999995 0
      vertex 20.495000000000005 44.919999999999995 0
    endloop
  endfacet
  facet normal 0 1 0
    outer loop
      vertex 28.495000000000005 46.519999999999996 -3
      vertex 20.495000000000005 46.519999999999996 0
      vertex 28.495000000000005 46.519999999999996 0
    endloop
  endfacet
  facet normal 1 0 0
    outer loop
      vertex 28.495000000000005 46.519999999999996 -3
      vertex 28.495000000000005 46.519999999999996 0
      vertex 28.495000000000005 44.919999999999995 0
    endloop
  endfacet
  facet normal 0 0 -1
    outer loop
      vertex 57.38600000000001 -0.3999999999999999 -3
      vertex 57.38600000000001 1.2000000000000002 -3
      vertex 65.38600000000001 1.2000000000000002 -3
    endloop
  endfacet
  facet normal -1 0 0
    outer loop
      vertex 57.38600000000001 -0.3999999999999999 -3
      vertex 57.38600000000001 1.2000000000000002 0
      vertex 57.38600000000001 1.2000000000000002 -3
    endloop
  endfacet
  facet normal 0 1 0
    outer loop
      vertex 57.38600000000001 1.2000000000000002 -3
      vertex 57.38600000000001 1.2000000000000002 0
      vertex 65.38600000000001 1.2000000000000002 -3
    endloop
  endfacet
  facet normal -1 0 0
    outer loop
      vertex 57.38600000000001 -0.3999999999999999 -3
      vertex 57.38600000000001 -0.3999999999999999 0
      vertex 57.38600000000001 0 0
    endloop
  endfacet
  facet normal -1 0 0
    outer loop
      vertex 57.38600000000001 -0.3999999999999999 -3
      vertex 57.38600000000001 0 0
      vertex 57.38600000000001 1.2000000000000002 0
    endloop
  endfacet
  facet normal 0 -1 0
    outer loop
      vertex 57.38600000000001 -0.3999999999999999 -3
      vertex 65.38600000000001 -0.3999999999999999 0
      vertex 57.38600000000001 -0.3999999999999999 0
    endloop
  endfacet
  facet normal 0 0 -1
    outer loop
      vertex 57.38600000000001 -0.3999999999999999 -3
      vertex 65.38600000000001 1.2000000000000002 -3
      vertex 65.38600000000001 -0.3999999999999999 -3
    endloop
  endfacet
  facet normal 0 -1 0
    outer loop
      vertex 57.38600000000001 -0.3999999999999999 -3
      vertex 65.38600000000001 -0.3999999999999999 -3
      vertex 65.38600000000001 -0.3999999999999999 0
    endloop
  endfacet
  facet normal 1 0 0
    outer loop
      vertex 65.38600000000001 -0.3999999999999999 -3
      vertex 65.38600000000001 1.2000000000000002 -3
      vertex 65.38600000000001 -0.3999999999999999 0
    endloop
  endfacet
  facet normal 0 1 0
    outer loop
      vertex 65.38600000000001 1.2000000000000002 -3
      vertex 57.38600000000001 1.2000000000000002 0
      vertex 65.38600000000001 1.2000000000000002 0
    endloop
  endfacet
  facet normal 1 0 0
    outer loop
      vertex 65.38600000000001 1.2000000000000002 -3
      vertex 65.38600000000001 0 0
      vertex 65.38600000000001 -0.3999999999999999 0
    endloop
  endfacet
  facet normal 1 0 0
    outer loop
      vertex 65.38600000000001 1.2000000000000002 -3
      vertex 65.38600000000001 1.2000000000000002 0
      vertex 65.38600000000001 0 0
    endloop
  endfacet
  facet normal 0 0 1
    outer loop
      vertex 57.38600000000001 -0.3999999999999999 0
      vertex 65.38600000000001 0 0
      vertex 57.38600000000001 0 0
    endloop
  endfacet
  facet normal 0 0 1
    outer loop
      vertex 57.38600000000001 -0.3999999999999999 0
      vertex 65.38600000000001 -0.3999999999999999 0
      vertex 65.38600000000001 0 0
    endloop
  endfacet
  facet normal 0 0 -1
    outer loop
      vertex 57.38600000000001 44.919999999999995 -3
      vertex 57.38600000000001 46.519999999999996 -3
      vertex 65.38600000000001 46.519999999999996 -3
    endloop
  endfacet
  facet normal -1 0 0
    outer loop
      vertex 57.38600000000001 44.919999999999995 -3
      vertex 57.38600000000001 46.519999999999996 0
      vertex 57.38600000000001 46.519999999999996 -3
    endloop
  endfacet
  facet normal 0 1 0
    outer loop
      vertex 57.38600000000001 46.519999999999996 -3
      vertex 57.38600000000001 46.519999999999996 0
      vertex 65.38600000000001 46.519999999999996 -3
    endloop
  endfacet
  facet normal -1 0 0
    outer loop
      vertex 57.38600000000001 44.919999999999995 -3
      vertex 57.38600000000001 44.919999999999995 0
      vertex 57.38600000000001 46.519999999999996 0
    endloop
  endfacet
  facet normal 0 -1 0
    outer loop
      vertex 57.38600000000001 44.919999999999995 -3
      vertex 65.38600000000001 44.919999999999995 0
      vertex 57.38600000000001 44.919999999999995 0
    endloop
  endfacet
  facet normal 0 0 -1
    outer loop
      vertex 57.38600000000001 44.919999999999995 -3
      vertex 65.38600000000001 46.519999999999996 -3
      vertex 65.38600000000001 44.919999999999995 -3
    endloop
  endfacet
  facet normal 0 -1 0
    outer loop
      vertex 57.38600000000001 44.919999999999995 -3
      vertex 65.38600000000001 44.919999999999995 -3
      vertex 65.38600000000001 44.919999999999995 0
    endloop
  endfacet
  facet normal 1 0 0
    outer loop
      vertex 65.38600000000001 44.919999999999995 -3
      vertex 65.38600000000001 46.519999999999996 -3
      vertex 65.38600000000001 44.919999999999995 0
    endloop
  endfacet
  facet normal 0 1 0
    outer loop
      vertex 65.38600000000001 46.519999999999996 -3
      vertex 57.38600000000001 46.519999999999996 0
      vertex 65.38600000000001 46.519999999999996 0
    endloop
  endfacet
  facet normal 1 0 0
    outer loop
      vertex 65.38600000000001 46.519999999999996 -3
      vertex 65.38600000000001 46.519999999999996 0
      vertex 65.38600000000001 44.919999999999995 0
    endloop
  endfacet
endsolid OpenSCAD_Model
